<svg width="13" height="13" viewBox="0 0 13 13" fill="none" xmlns="http://www.w3.org/2000/svg">
<path d="M10.5155 5.08583L6.76552 8.83583C6.73069 8.8707 6.68934 8.89836 6.64381 8.91723C6.59829 8.9361 6.54949 8.94582 6.50021 8.94582C6.45093 8.94582 6.40213 8.9361 6.35661 8.91723C6.31108 8.89836 6.26972 8.8707 6.2349 8.83583L2.4849 5.08583C2.41453 5.01547 2.375 4.92003 2.375 4.82052C2.375 4.72101 2.41453 4.62557 2.4849 4.55521C2.55526 4.48484 2.6507 4.44531 2.75021 4.44531C2.84972 4.44531 2.94516 4.48484 3.01552 4.55521L6.50021 8.04036L9.9849 4.55521C10.0197 4.52037 10.0611 4.49273 10.1066 4.47387C10.1521 4.45502 10.2009 4.44531 10.2502 4.44531C10.2995 4.44531 10.3483 4.45502 10.3938 4.47387C10.4393 4.49273 10.4807 4.52037 10.5155 4.55521C10.5504 4.59005 10.578 4.63141 10.5969 4.67693C10.6157 4.72246 10.6254 4.77125 10.6254 4.82052C10.6254 4.86979 10.6157 4.91858 10.5969 4.96411C10.578 5.00963 10.5504 5.05099 10.5155 5.08583Z" fill="#171A1F"/>
</svg>
