<svg width="17" height="17" viewBox="0 0 17 17" fill="none" xmlns="http://www.w3.org/2000/svg">
<path d="M2.21094 14.6055L14.7824 14.6055" stroke="#171A1F" stroke-width="1.37143" stroke-miterlimit="10" stroke-linecap="square"/>
<path d="M8.91379 4.02575L6.2115 2.22461L4.6875 2.73261L6.48921 4.83432" stroke="#171A1F" stroke-width="1.37143" stroke-miterlimit="10" stroke-linecap="square"/>
<path d="M14.7311 5.10195C14.6838 4.9592 14.6088 4.82719 14.5105 4.71347C14.4121 4.59975 14.2922 4.50657 14.1578 4.43926C14.0233 4.37195 13.8769 4.33183 13.7269 4.32121C13.5769 4.31059 13.4263 4.32968 13.2837 4.37738L5.4168 7.00195L3.89395 6.11852L2.60937 6.53966L3.84309 8.89166H6.97338L14.0065 6.54881C14.1492 6.50153 14.2812 6.42658 14.3948 6.32823C14.5085 6.22989 14.6017 6.11009 14.669 5.97569C14.7363 5.84129 14.7764 5.69494 14.7871 5.54501C14.7977 5.39508 14.7787 5.24452 14.7311 5.10195Z" stroke="#171A1F" stroke-width="1.37143" stroke-miterlimit="10"/>
<path d="M8.24395 8.46845L7.35937 12.8919H9.07366L11.3474 7.43359" stroke="#171A1F" stroke-width="1.37143" stroke-miterlimit="10"/>
</svg>
