<svg width="22" height="23" viewBox="0 0 22 23" fill="none" xmlns="http://www.w3.org/2000/svg">
<path d="M11.0004 7.37541C10.1846 7.37541 9.38703 7.61733 8.70868 8.07059C8.03033 8.52385 7.50161 9.16809 7.1894 9.92184C6.87719 10.6756 6.7955 11.505 6.95467 12.3052C7.11383 13.1053 7.5067 13.8403 8.08359 14.4172C8.66048 14.9941 9.39549 15.387 10.1957 15.5461C10.9958 15.7053 11.8252 15.6236 12.579 15.3114C13.3327 14.9992 13.977 14.4705 14.4302 13.7921C14.8835 13.1138 15.1254 12.3163 15.1254 11.5004C15.1243 10.4067 14.6893 9.35819 13.916 8.58485C13.1426 7.81151 12.0941 7.37654 11.0004 7.37541ZM11.0004 14.2504C10.4565 14.2504 9.92482 14.0891 9.47259 13.7869C9.02035 13.4848 8.66788 13.0553 8.45974 12.5528C8.2516 12.0503 8.19714 11.4974 8.30325 10.9639C8.40936 10.4305 8.67127 9.94046 9.05586 9.55586C9.44046 9.17127 9.93046 8.90936 10.4639 8.80325C10.9974 8.69714 11.5503 8.7516 12.0528 8.95974C12.5553 9.16788 12.9848 9.52035 13.2869 9.97259C13.5891 10.4248 13.7504 10.9565 13.7504 11.5004C13.7504 12.2298 13.4607 12.9292 12.9449 13.4449C12.4292 13.9607 11.7298 14.2504 11.0004 14.2504ZM18.5629 11.686C18.5663 11.5623 18.5663 11.4385 18.5629 11.3148L19.8451 9.71291C19.9123 9.6288 19.9589 9.53008 19.981 9.42469C20.003 9.31931 20.0001 9.21021 19.9723 9.10619C19.7621 8.31608 19.4477 7.55746 19.0373 6.85033C18.9835 6.75779 18.909 6.67907 18.8194 6.62044C18.7299 6.5618 18.628 6.52488 18.5217 6.51259L16.4832 6.28572C16.3984 6.19634 16.3125 6.11041 16.2254 6.02791L15.9848 3.98431C15.9724 3.87793 15.9353 3.77591 15.8766 3.68639C15.8178 3.59687 15.7389 3.52232 15.6462 3.46869C14.9388 3.05906 14.1802 2.74495 13.3903 2.53455C13.2862 2.50687 13.1771 2.50404 13.0717 2.52628C12.9663 2.54852 12.8676 2.59522 12.7836 2.66259L11.186 3.93791C11.0623 3.93791 10.9385 3.93791 10.8148 3.93791L9.21291 2.6583C9.1288 2.59107 9.03008 2.54453 8.92469 2.52244C8.81931 2.50035 8.71021 2.50332 8.60619 2.53111C7.81621 2.74168 7.05764 3.05609 6.35033 3.46611C6.25779 3.51984 6.17907 3.59443 6.12044 3.68395C6.0618 3.77347 6.02488 3.87543 6.01259 3.98173L5.78572 6.02361C5.69634 6.10897 5.61041 6.19491 5.52791 6.28142L3.48431 6.51603C3.37793 6.52841 3.27591 6.56547 3.18639 6.62425C3.09687 6.68304 3.02232 6.76192 2.96869 6.85462C2.55906 7.56203 2.24495 8.32058 2.03455 9.11048C2.00687 9.21458 2.00404 9.32371 2.02628 9.4291C2.04852 9.53449 2.09522 9.63317 2.16259 9.7172L3.43791 11.3148C3.43791 11.4385 3.43791 11.5623 3.43791 11.686L2.1583 13.2879C2.09107 13.372 2.04453 13.4707 2.02244 13.5761C2.00035 13.6815 2.00332 13.7906 2.03111 13.8946C2.2413 14.6847 2.55573 15.4433 2.96611 16.1505C3.01984 16.243 3.09443 16.3217 3.18395 16.3804C3.27347 16.439 3.37543 16.4759 3.48173 16.4882L5.52017 16.7151C5.60554 16.8045 5.69147 16.8904 5.77798 16.9729L6.01603 19.0165C6.02841 19.1229 6.06547 19.2249 6.12425 19.3144C6.18304 19.4039 6.26192 19.4785 6.35462 19.5321C7.06203 19.9417 7.82058 20.2559 8.61048 20.4663C8.71458 20.4939 8.82371 20.4968 8.9291 20.4745C9.03449 20.4523 9.13317 20.4056 9.2172 20.3382L10.8148 19.0629C10.9385 19.0663 11.0623 19.0663 11.186 19.0629L12.7879 20.3451C12.872 20.4123 12.9707 20.4589 13.0761 20.481C13.1815 20.503 13.2906 20.5001 13.3946 20.4723C14.1847 20.2621 14.9433 19.9477 15.6505 19.5373C15.743 19.4835 15.8217 19.409 15.8804 19.3194C15.939 19.2299 15.9759 19.128 15.9882 19.0217L16.2151 16.9832C16.3045 16.8984 16.3904 16.8125 16.4729 16.7254L18.5165 16.4848C18.6229 16.4724 18.7249 16.4353 18.8144 16.3766C18.9039 16.3178 18.9785 16.2389 19.0321 16.1462C19.4417 15.4388 19.7559 14.6802 19.9663 13.8903C19.9939 13.7862 19.9968 13.6771 19.9745 13.5717C19.9523 13.4663 19.9056 13.3676 19.8382 13.2836L18.5629 11.686ZM17.1793 11.1274C17.1939 11.3759 17.1939 11.6249 17.1793 11.8734C17.1691 12.0435 17.2224 12.2113 17.3288 12.3443L18.5483 13.868C18.4084 14.3127 18.2292 14.7441 18.0129 15.157L16.0707 15.377C15.9016 15.3958 15.7454 15.4767 15.6324 15.6039C15.467 15.79 15.2908 15.9662 15.1048 16.1316C14.9775 16.2446 14.8967 16.4007 14.8779 16.5699L14.6622 18.5103C14.2493 18.7267 13.8179 18.9059 13.3731 19.0457L11.8486 17.8263C11.7266 17.7288 11.5751 17.6758 11.4189 17.6759H11.3777C11.1292 17.6905 10.8802 17.6905 10.6317 17.6759C10.4616 17.6656 10.2938 17.7189 10.1608 17.8254L8.63283 19.0457C8.18813 18.9058 7.75675 18.7266 7.34376 18.5103L7.12376 16.5707C7.10499 16.4016 7.02415 16.2454 6.89689 16.1324C6.71084 15.967 6.53466 15.7908 6.36923 15.6048C6.25625 15.4775 6.10009 15.3967 5.93095 15.3779L3.99048 15.1613C3.77409 14.7484 3.59491 14.317 3.45509 13.8723L4.67455 12.3477C4.78103 12.2147 4.83432 12.0469 4.82408 11.8768C4.80947 11.6284 4.80947 11.3793 4.82408 11.1309C4.83432 10.9608 4.78103 10.793 4.67455 10.6599L3.45509 9.13283C3.59502 8.68813 3.77419 8.25675 3.99048 7.84376L5.93009 7.62376C6.09923 7.60499 6.25539 7.52415 6.36837 7.39689C6.5338 7.21084 6.70998 7.03466 6.89603 6.86923C7.0238 6.75618 7.10497 6.59966 7.12376 6.43009L7.33947 4.49048C7.7524 4.27409 8.18379 4.09491 8.62853 3.95509L10.1531 5.17455C10.2861 5.28103 10.4539 5.33432 10.624 5.32408C10.8724 5.30947 11.1215 5.30947 11.3699 5.32408C11.54 5.33432 11.7078 5.28103 11.8409 5.17455L13.368 3.95509C13.8127 4.09502 14.2441 4.27419 14.657 4.49048L14.877 6.43009C14.8958 6.59923 14.9767 6.75539 15.1039 6.86837C15.29 7.0338 15.4662 7.20998 15.6316 7.39603C15.7446 7.52329 15.9007 7.60413 16.0699 7.62291L18.0103 7.83861C18.2267 8.25154 18.4059 8.68293 18.5457 9.12767L17.3263 10.6522C17.2188 10.7863 17.1654 10.9559 17.1767 11.1274H17.1793Z" fill="#2D6ADC"/>
</svg>
