<svg width="24" height="24" viewBox="0 0 24 24" fill="none" xmlns="http://www.w3.org/2000/svg">
<path d="M12.0026 4.63281C7.21094 4.63281 3.11885 7.61323 1.46094 11.8203C3.11885 16.0274 7.21094 19.0078 12.0026 19.0078C16.7943 19.0078 20.8864 16.0274 22.5443 11.8203C20.8864 7.61323 16.7943 4.63281 12.0026 4.63281ZM12.0026 16.612C9.3576 16.612 7.21094 14.4653 7.21094 11.8203C7.21094 9.17531 9.3576 7.02865 12.0026 7.02865C14.6476 7.02865 16.7943 9.17531 16.7943 11.8203C16.7943 14.4653 14.6476 16.612 12.0026 16.612ZM12.0026 8.94531C10.4118 8.94531 9.1276 10.2295 9.1276 11.8203C9.1276 13.4111 10.4118 14.6953 12.0026 14.6953C13.5934 14.6953 14.8776 13.4111 14.8776 11.8203C14.8776 10.2295 13.5934 8.94531 12.0026 8.94531Z" fill="white"/>
</svg>
