<svg width="16" height="16" viewBox="0 0 16 16" fill="none" xmlns="http://www.w3.org/2000/svg">
<path d="M14.7145 10.6074L13.7888 10.0846L8.70305 12.9577C8.48869 13.0788 8.24667 13.1424 8.00048 13.1424C7.75429 13.1424 7.51227 13.0788 7.29791 12.9577L2.21219 10.084L1.28648 10.6068C1.24224 10.6317 1.2054 10.6678 1.17977 10.7116C1.15414 10.7554 1.14062 10.8052 1.14062 10.856C1.14062 10.9067 1.15414 10.9565 1.17977 11.0003C1.2054 11.0441 1.24224 11.0803 1.28648 11.1051L7.85791 14.8194C7.9008 14.8436 7.94922 14.8564 7.99848 14.8564C8.04774 14.8564 8.09617 14.8436 8.13905 14.8194L14.7105 11.1051C14.7547 11.0803 14.7916 11.0441 14.8172 11.0003C14.8428 10.9565 14.8563 10.9067 14.8563 10.856C14.8563 10.8052 14.8428 10.7554 14.8172 10.7116C14.7916 10.6678 14.7547 10.6317 14.7105 10.6068L14.7145 10.6074Z" fill="#565D6D"/>
<path d="M14.7145 7.74999L13.7888 7.22713L8.70305 10.1003C8.48869 10.2214 8.24667 10.285 8.00048 10.285C7.75429 10.285 7.51227 10.2214 7.29791 10.1003L2.21219 7.22656L1.28648 7.74942C1.24224 7.77426 1.2054 7.81043 1.17977 7.85421C1.15414 7.898 1.14062 7.94782 1.14062 7.99856C1.14062 8.0493 1.15414 8.09912 1.17977 8.14291C1.2054 8.1867 1.24224 8.22287 1.28648 8.24771L7.85791 11.962C7.9008 11.9862 7.94922 11.999 7.99848 11.999C8.04774 11.999 8.09617 11.9862 8.13905 11.962L14.7105 8.24771C14.7547 8.22287 14.7916 8.1867 14.8172 8.14291C14.8428 8.09912 14.8563 8.0493 14.8563 7.99856C14.8563 7.94782 14.8428 7.898 14.8172 7.85421C14.7916 7.81043 14.7547 7.77426 14.7105 7.74942L14.7145 7.74999Z" fill="#565D6D"/>
<path d="M14.7105 4.89325L8.13905 1.17897C8.09604 1.1551 8.04767 1.14258 7.99848 1.14258C7.94929 1.14258 7.90092 1.1551 7.85791 1.17897L1.28648 4.89325C1.24224 4.91809 1.2054 4.95426 1.17977 4.99805C1.15414 5.04183 1.14062 5.09166 1.14062 5.1424C1.14062 5.19313 1.15414 5.24296 1.17977 5.28674C1.2054 5.33053 1.24224 5.3667 1.28648 5.39154L7.85791 9.10582C7.9008 9.13006 7.94922 9.1428 7.99848 9.1428C8.04774 9.1428 8.09617 9.13006 8.13905 9.10582L14.7105 5.39154C14.7547 5.3667 14.7916 5.33053 14.8172 5.28674C14.8428 5.24296 14.8563 5.19313 14.8563 5.1424C14.8563 5.09166 14.8428 5.04183 14.8172 4.99805C14.7916 4.95426 14.7547 4.91809 14.7105 4.89325Z" fill="#565D6D"/>
</svg>
