<svg width="86" height="26" viewBox="0 0 86 26" fill="none" xmlns="http://www.w3.org/2000/svg">
<rect x="0.5" y="0.5" width="85" height="25" rx="4.5" fill="white"/>
<rect x="0.5" y="0.5" width="85" height="25" rx="4.5" stroke="#9095A1"/>
<path d="M63.1887 11.2512L57.8762 16.5637C57.8268 16.613 57.7682 16.6522 57.7037 16.679C57.6392 16.7057 57.5701 16.7195 57.5003 16.7195C57.4305 16.7195 57.3614 16.7057 57.2969 16.679C57.2324 16.6522 57.1738 16.613 57.1244 16.5637L51.8119 11.2512C51.7123 11.1515 51.6562 11.0163 51.6562 10.8753C51.6562 10.7343 51.7123 10.5991 51.8119 10.4994C51.9116 10.3998 52.0468 10.3438 52.1878 10.3438C52.3288 10.3438 52.464 10.3998 52.5637 10.4994L57.5003 15.4367L62.4369 10.4994C62.4863 10.4501 62.5449 10.4109 62.6094 10.3842C62.6739 10.3575 62.743 10.3438 62.8128 10.3438C62.8826 10.3438 62.9517 10.3575 63.0162 10.3842C63.0807 10.4109 63.1393 10.4501 63.1887 10.4994C63.238 10.5488 63.2772 10.6074 63.3039 10.6719C63.3306 10.7364 63.3443 10.8055 63.3443 10.8753C63.3443 10.9451 63.3306 11.0142 63.3039 11.0787C63.2772 11.1432 63.238 11.2018 63.1887 11.2512Z" fill="#4079F3"/>
</svg>
