<svg width="81" height="40" viewBox="0 0 81 40" fill="none" xmlns="http://www.w3.org/2000/svg">
<rect x="0.5" y="0.5" width="80" height="39" rx="4.5" fill="white"/>
<rect x="0.5" y="0.5" width="80" height="39" rx="4.5" stroke="#9095A1"/>
<path d="M58.1887 18.2512L52.8762 23.5637C52.8268 23.613 52.7682 23.6522 52.7037 23.679C52.6392 23.7057 52.5701 23.7195 52.5003 23.7195C52.4305 23.7195 52.3614 23.7057 52.2969 23.679C52.2324 23.6522 52.1738 23.613 52.1244 23.5637L46.8119 18.2512C46.7123 18.1515 46.6562 18.0163 46.6562 17.8753C46.6562 17.7343 46.7123 17.5991 46.8119 17.4994C46.9116 17.3998 47.0468 17.3438 47.1878 17.3438C47.3288 17.3438 47.464 17.3998 47.5637 17.4994L52.5003 22.4367L57.4369 17.4994C57.4863 17.4501 57.5449 17.4109 57.6094 17.3842C57.6739 17.3575 57.743 17.3438 57.8128 17.3438C57.8826 17.3438 57.9517 17.3575 58.0162 17.3842C58.0807 17.4109 58.1393 17.4501 58.1887 17.4994C58.238 17.5488 58.2772 17.6074 58.3039 17.6719C58.3306 17.7364 58.3443 17.8055 58.3443 17.8753C58.3443 17.9451 58.3306 18.0142 58.3039 18.0787C58.2772 18.1432 58.238 18.2018 58.1887 18.2512Z" fill="#4079F3"/>
</svg>
