<svg width="208" height="30" viewBox="0 0 208 30" fill="none" xmlns="http://www.w3.org/2000/svg">
<rect x="0.5" y="0.5" width="207" height="29" rx="4.5" fill="white"/>
<rect x="0.5" y="0.5" width="207" height="29" rx="4.5" stroke="#9095A1"/>
<path d="M185.189 13.2512L179.876 18.5637C179.827 18.613 179.768 18.6522 179.704 18.679C179.639 18.7057 179.57 18.7195 179.5 18.7195C179.43 18.7195 179.361 18.7057 179.297 18.679C179.232 18.6522 179.174 18.613 179.124 18.5637L173.812 13.2512C173.712 13.1515 173.656 13.0163 173.656 12.8753C173.656 12.7343 173.712 12.5991 173.812 12.4994C173.912 12.3998 174.047 12.3438 174.188 12.3438C174.329 12.3438 174.464 12.3998 174.564 12.4994L179.5 17.4367L184.437 12.4994C184.486 12.4501 184.545 12.4109 184.609 12.3842C184.674 12.3575 184.743 12.3438 184.813 12.3438C184.883 12.3438 184.952 12.3575 185.016 12.3842C185.081 12.4109 185.139 12.4501 185.189 12.4994C185.238 12.5488 185.277 12.6074 185.304 12.6719C185.331 12.7364 185.344 12.8055 185.344 12.8753C185.344 12.9451 185.331 13.0142 185.304 13.0787C185.277 13.1432 185.238 13.2018 185.189 13.2512Z" fill="#4079F3"/>
</svg>
