<svg width="108" height="39" viewBox="0 0 108 39" fill="none" xmlns="http://www.w3.org/2000/svg">
<rect x="0.5" y="0.5" width="107" height="38" rx="4.5" fill="white"/>
<rect x="0.5" y="0.5" width="107" height="38" rx="4.5" stroke="#9095A1"/>
<path d="M85.1887 18.2512L79.8762 23.5637C79.8268 23.613 79.7682 23.6522 79.7037 23.679C79.6392 23.7057 79.5701 23.7195 79.5003 23.7195C79.4305 23.7195 79.3614 23.7057 79.2969 23.679C79.2324 23.6522 79.1738 23.613 79.1244 23.5637L73.8119 18.2512C73.7123 18.1515 73.6562 18.0163 73.6562 17.8753C73.6562 17.7343 73.7123 17.5991 73.8119 17.4994C73.9116 17.3998 74.0468 17.3438 74.1878 17.3438C74.3288 17.3438 74.464 17.3998 74.5637 17.4994L79.5003 22.4367L84.4369 17.4994C84.4863 17.4501 84.5449 17.4109 84.6094 17.3842C84.6739 17.3575 84.743 17.3438 84.8128 17.3438C84.8826 17.3438 84.9517 17.3575 85.0162 17.3842C85.0807 17.4109 85.1393 17.4501 85.1887 17.4994C85.238 17.5488 85.2772 17.6074 85.3039 17.6719C85.3306 17.7364 85.3443 17.8055 85.3443 17.8753C85.3443 17.9451 85.3306 18.0142 85.3039 18.0787C85.2772 18.1432 85.238 18.2018 85.1887 18.2512Z" fill="#4079F3"/>
</svg>
