<svg width="57" height="27" viewBox="0 0 57 27" fill="none" xmlns="http://www.w3.org/2000/svg">
<rect x="0.5" y="0.5" width="56" height="26" rx="4.5" fill="white"/>
<rect x="0.5" y="0.5" width="56" height="26" rx="4.5" stroke="#9095A1"/>
<path d="M34.1887 12.2512L28.8762 17.5637C28.8268 17.613 28.7682 17.6522 28.7037 17.679C28.6392 17.7057 28.5701 17.7195 28.5003 17.7195C28.4305 17.7195 28.3614 17.7057 28.2969 17.679C28.2324 17.6522 28.1738 17.613 28.1244 17.5637L22.8119 12.2512C22.7123 12.1515 22.6562 12.0163 22.6562 11.8753C22.6562 11.7343 22.7123 11.5991 22.8119 11.4994C22.9116 11.3998 23.0468 11.3438 23.1878 11.3438C23.3288 11.3438 23.464 11.3998 23.5637 11.4994L28.5003 16.4367L33.4369 11.4994C33.4863 11.4501 33.5449 11.4109 33.6094 11.3842C33.6739 11.3575 33.743 11.3438 33.8128 11.3438C33.8826 11.3438 33.9517 11.3575 34.0162 11.3842C34.0807 11.4109 34.1393 11.4501 34.1887 11.4994C34.238 11.5488 34.2772 11.6074 34.3039 11.6719C34.3306 11.7364 34.3443 11.8055 34.3443 11.8753C34.3443 11.9451 34.3306 12.0142 34.3039 12.0787C34.2772 12.1432 34.238 12.2018 34.1887 12.2512Z" fill="#4079F3"/>
</svg>
